<svg aria-hidden="true" style="width:0;height:0;position:absolute;overflow:hidden" xmlns="http://www.w3.org/2000/svg"><defs><symbol id="icon-arrow-left-desk" viewBox="0 0 37 32"><path d="M2.667 21.333v-16A5.333 5.333 0 0 1 8 0h21.333a5.333 5.333 0 0 1 5.333 5.333v16a5.333 5.333 0 0 1-5.333 5.333H8a5.333 5.333 0 0 1-5.333-5.333z"/><path d="m11.634 13.937 9.288 8.85a.832.832 0 0 0 1.15 0l.01-.01a.78.78 0 0 0 .238-.555.763.763 0 0 0-.238-.555l-8.747-8.333 8.747-8.33a.78.78 0 0 0 .238-.555.763.763 0 0 0-.238-.555l-.01-.01a.832.832 0 0 0-1.15 0l-9.288 8.85a.82.82 0 0 0-.258.603.837.837 0 0 0 .258.603z"/></symbol><symbol id="icon-arrow-left-tablet" viewBox="0 0 37 32"><path d="M3.556 21.333V3.555A3.556 3.556 0 0 1 7.112-.001h23.111a3.556 3.556 0 0 1 3.556 3.556v17.778a3.556 3.556 0 0 1-3.556 3.556H7.112a3.556 3.556 0 0 1-3.556-3.556z"/><path d="M12.231 12.686a.327.327 0 0 1-.076-.372.35.35 0 0 1 .076-.11l8.669-8.26a.333.333 0 0 1 .457-.003l.005.005.008.008a.28.28 0 0 1 .084.197.263.263 0 0 1-.022.107.295.295 0 0 1-.062.09l-8.501 8.096 8.502 8.1a.28.28 0 0 1 .084.197c0 .037-.007.073-.022.107s-.036.064-.062.09l-.008.008-.005.005a.336.336 0 0 1-.457-.003l-8.669-8.26z"/></symbol><symbol id="icon-arrow-right-desk" viewBox="0 0 37 32"><path d="M34.667 5.333v16a5.333 5.333 0 0 1-5.333 5.333H8.001a5.333 5.333 0 0 1-5.333-5.333v-16A5.333 5.333 0 0 1 8.001 0h21.333a5.333 5.333 0 0 1 5.333 5.333z"/><path d="m25.7 12.73-9.288-8.85a.832.832 0 0 0-1.15 0l-.01.01a.78.78 0 0 0-.238.555.763.763 0 0 0 .238.555l8.747 8.333-8.747 8.33a.78.78 0 0 0-.238.555.763.763 0 0 0 .238.555l.01.01a.832.832 0 0 0 1.15 0l9.288-8.85a.82.82 0 0 0 .258-.603.837.837 0 0 0-.258-.603z"/></symbol><symbol id="icon-arrow-right-tablet" viewBox="0 0 37 32"><path d="M33.778 3.556v17.778a3.556 3.556 0 0 1-3.556 3.556H7.111a3.556 3.556 0 0 1-3.556-3.556V3.556A3.556 3.556 0 0 1 7.111 0h23.111a3.556 3.556 0 0 1 3.556 3.556z"/><path d="M25.102 12.203a.327.327 0 0 1 .076.372.35.35 0 0 1-.076.11l-8.669 8.26a.333.333 0 0 1-.457.003l-.005-.005-.008-.008a.28.28 0 0 1-.084-.197c0-.037.007-.073.022-.107a.295.295 0 0 1 .062-.09l8.501-8.096-8.502-8.1a.28.28 0 0 1-.084-.197c0-.037.007-.073.022-.107a.295.295 0 0 1 .062-.09l.008-.008.005-.005a.336.336 0 0 1 .457.003l8.669 8.26z"/></symbol><symbol id="icon-burger_menu" viewBox="0 0 32 32"><path d="M2.666 8A1.335 1.335 0 0 1 4 6.666h24A1.33 1.33 0 0 1 29.333 8 1.333 1.333 0 0 1 28 9.334H4A1.335 1.335 0 0 1 2.666 8zm0 8.043A1.33 1.33 0 0 1 4 14.71h24a1.333 1.333 0 1 1 0 2.666H4a1.333 1.333 0 0 1-1.334-1.333zM4 22.752a1.337 1.337 0 0 0-1.334 1.333A1.33 1.33 0 0 0 4 25.418h24a1.333 1.333 0 1 0 0-2.666H4z"/></symbol><symbol id="icon-close" viewBox="0 0 30 32"><path d="m16.219 14.826 4.928-4.924a1.012 1.012 0 0 0-1.43-1.428l-4.928 4.873-4.958-4.954a1.013 1.013 0 0 0-1.43 1.428l4.948 5.005-4.846 4.782a1.002 1.002 0 0 0-.284 1.139 1.014 1.014 0 0 0 1.714.29l4.836-4.833 4.806 4.802a1.013 1.013 0 0 0 1.43-1.428l-4.786-4.751z"/></symbol><symbol id="icon-logo" viewBox="0 0 44 32"><path fill="#ffe550" style="fill:var(--color5,#ffe550)" d="M16.394 6.486c1.012-1.989 3.853-1.989 4.865 0l1.259 2.476a2.731 2.731 0 0 0 2.002 1.458l2.752.439c2.197.351 3.074 3.042 1.504 4.62l-1.981 1.991a2.726 2.726 0 0 0-.761 2.349l.435 2.769c.346 2.202-1.951 3.868-3.937 2.854l-2.465-1.259a2.729 2.729 0 0 0-2.482 0l-2.465 1.259c-1.985 1.014-4.283-.652-3.937-2.854l.435-2.769a2.732 2.732 0 0 0-.761-2.349l-1.981-1.991c-1.57-1.577-.693-4.269 1.504-4.62l2.752-.439a2.73 2.73 0 0 0 2.002-1.458l1.259-2.476z"/><path fill="#2c2c2c" style="fill:var(--color2,#2c2c2c)" d="m3.427 20.356-.021.005c.003.074-.001.374-.012.9-.003.524-.005.869-.003 1.033 0 .157-.004.285-.01.384l.001.336c-.002.12-.008.219-.02.296l-.019.206c-.014.13-.042.201-.085.211-.092.022-.236-.049-.431-.212-.197-.17-.311-.319-.341-.446s-.037-1.061-.021-2.8c.023-1.741-.022-2.885-.137-3.434a.421.421 0 0 1 .014-.273c.036-.166.22-.321.551-.467.339-.148.845-.301 1.517-.461.68-.161 1.219-.252 1.618-.272.406-.022.624.031.654.159.02.085-.026.159-.138.223s-.212.117-.299.161a55.15 55.15 0 0 1-.349.139c-.145.049-.28.096-.404.141-.126.037-.289.091-.489.161-.193.068-.372.133-.537.195-.167.055-.391.134-.673.238s-.465.17-.548.197c.012.02.023.051.033.093.079.333.121 1.131.127 2.393.444-.083.912-.205 1.405-.367.5-.163.806-.259.92-.286.269-.064.417-.039.444.074.052.22-.213.477-.794.772a8.7 8.7 0 0 1-1.955.699zm6.933-1.959a2.013 2.013 0 0 0-.277-.652c-.13-.201-.281-.334-.453-.397-.457.251-.789.729-.996 1.437-.202.699-.238 1.32-.11 1.866s.343.853.644.924c.486-.22.836-.67 1.05-1.349.219-.688.266-1.297.141-1.828zm-2.771.758c.118-.611.333-1.141.646-1.589.318-.457.686-.735 1.104-.834.425-.101.821-.004 1.19.29.367.287.611.689.733 1.206.12.51.12 1.063-.001 1.661a3.802 3.802 0 0 1-.717 1.573c-.35.45-.769.732-1.258.848-.361.086-.701-.009-1.021-.285s-.539-.669-.659-1.179c-.122-.517-.128-1.08-.017-1.69zm7.584-1.9a2.013 2.013 0 0 0-.277-.652c-.13-.201-.28-.334-.453-.397-.457.251-.789.729-.996 1.437-.202.699-.238 1.32-.11 1.866s.343.853.644.924c.486-.22.836-.67 1.05-1.349.219-.688.266-1.297.141-1.828zm-2.771.758c.118-.611.333-1.141.646-1.589.318-.457.687-.735 1.104-.834.425-.101.821-.004 1.19.29.367.287.611.689.733 1.206.12.51.12 1.064-.001 1.661a3.802 3.802 0 0 1-.717 1.573c-.35.45-.769.732-1.258.848-.361.086-.701-.009-1.021-.285s-.539-.669-.659-1.179c-.122-.517-.128-1.08-.017-1.69zm7.794-6.999c.113-.027.276.047.489.22.218.165.349.34.393.524s.079.729.105 1.635c.025.899.029 1.837.013 2.813-.022 2.189-.115 3.303-.277 3.342-.099.023-.223-.011-.372-.102-.143-.101-.226-.197-.248-.289s-.04-.282-.056-.57c-.527.873-1.049 1.371-1.566 1.493-.311.074-.628-.001-.95-.223-.315-.225-.508-.489-.58-.794-.104-.439-.109-.987-.018-1.645.097-.666.31-1.3.639-1.902s.745-.962 1.248-1.081.924.099 1.264.654c.007-1.587-.074-2.821-.244-3.7-.05-.213.003-.337.159-.374zm.062 5.494c-.09-.382-.233-.689-.43-.919-.189-.232-.376-.326-.56-.282-.305.072-.572.334-.802.785s-.383.944-.459 1.478c-.071.525-.064.965.019 1.319.03.128.1.219.211.275s.229.069.357.039c.276-.066.601-.352.975-.86a3.581 3.581 0 0 0 .7-1.647l.002-.135-.013-.053zm6.779-.644c.137.581-.01 1.132-.44 1.653a3.03 3.03 0 0 1-1.668 1.013c-.673.16-1.269.118-1.79-.125-.523-.25-.82-.531-.894-.842-.05-.212-.011-.334.116-.364.113-.027.376.09.789.351.156.09.352.163.59.219.245.054.487.053.728-.004a2.385 2.385 0 0 0 1.227-.695c.329-.347.459-.67.389-.967-.045-.191-.23-.405-.555-.642s-.674-.45-1.048-.638c-.368-.197-.715-.417-1.042-.661s-.511-.455-.553-.632c-.042-.177-.051-.373-.027-.588s.068-.379.131-.491c.204-.37.567-.752 1.087-1.144.528-.394.99-.639 1.386-.733.205-.049.395-.023.568.078s.278.226.313.375c.017.071-.044.145-.183.223s-.352.188-.64.331a5.176 5.176 0 0 0-.741.423c-.741.505-1.077.902-1.008 1.193.037.156.554.493 1.551 1.012.384.201.747.455 1.088.763.347.299.556.597.626.895zm2.438.532c.032.135.125.183.281.146.269-.064.577-.215.924-.455.353-.248.55-.377.593-.387.127-.03.207.022.239.156.048.205-.108.493-.469.863-.354.368-.705.594-1.052.676-.34.081-.645.056-.915-.075-.272-.137-.431-.305-.478-.504s-.064-.46-.05-.785c.011-.332.036-.768.073-1.308.043-.549.071-1 .084-1.355-.314.157-.528.249-.642.276s-.24-.003-.38-.089c-.135-.095-.214-.196-.239-.302-.04-.17.382-.442 1.265-.816a7.66 7.66 0 0 0-.177-1.607c-.05-.213-.004-.335.137-.369.12-.029.287.014.501.128.212.107.341.256.386.447s.064.542.057 1.052c.395-.131.713-.225.954-.282.425-.101.659-.059.702.125.025.106-.071.223-.288.349-.21.125-.665.349-1.367.672-.017.595-.053 1.28-.109 2.057-.058.769-.069 1.232-.032 1.387zm4.751-5.57c.319-.076.651.018.997.28.344.255.547.513.609.775.06.255.033.538-.08.849.11.086.174.168.193.246.047.198.081.549.102 1.053.029.502.05.83.064.983a3.4 3.4 0 0 1 .05.639c.013.184-.029.287-.129.311-.127.03-.26-.054-.396-.254a3.191 3.191 0 0 1-.343-.838c-.441.95-.931 1.489-1.469 1.616-.326.077-.68.016-1.064-.185-.378-.209-.603-.463-.673-.76-.1-.425-.068-.986.097-1.683.163-.704.435-1.36.815-1.966s.79-.962 1.229-1.066zm.93 1.754c-.155-.659-.364-.957-.626-.895-.276.066-.551.34-.826.824-.276.477-.483.994-.621 1.55s-.173.98-.104 1.27a.37.37 0 0 0 .219.262.606.606 0 0 0 .376.023c.333-.079.655-.391.968-.937a3.84 3.84 0 0 0 .483-1.853c-.004-.111.041-.189.135-.234l-.002-.011z"/><path fill="#bbf330" style="fill:var(--color6,#bbf330)" d="M32.978 19.975a.912.912 0 0 0-.642.603c-1.901 5.652-7.227 9.717-13.492 9.717-3.8 0-7.254-1.495-9.808-3.933a.917.917 0 0 0-.85-.234c-.639.159-.881.932-.408 1.39a15.857 15.857 0 0 0 11.067 4.483c7.06 0 13.048-4.605 15.144-10.986.206-.626-.371-1.198-1.01-1.04zM4.171 14.148a.907.907 0 0 0 .666-.725C6.046 6.754 11.861 1.705 18.844 1.705c4.541 0 8.588 2.135 11.196 5.463.22.281.582.416.928.33.584-.145.848-.823.48-1.298C28.532 2.428 23.971 0 18.845 0 10.984 0 4.451 5.71 3.142 13.224c-.103.593.447 1.07 1.031.925z"/><path fill="#bbf330" style="fill:var(--color6,#bbf330);stroke:var(--color6,#bbf330)" stroke="#bbf330" stroke-linejoin="round" stroke-width=".627" d="M42.816 5.331c-3.768 7.241-5.422 2.465-10.725 5.271.53-8.406 6.148-3.291 10.725-5.271z"/></symbol><symbol id="icon-read-more-arrow" viewBox="0 0 19 32"><path d="M17.903 15.592a1.264 1.264 0 0 1 0 1.788L5.015 30.268a1.264 1.264 0 0 1-1.788 0l-.596-.596a1.264 1.264 0 0 1 0-1.788L14.03 16.486 2.631 5.087a1.264 1.264 0 0 1 0-1.788l.596-.596a1.264 1.264 0 0 1 1.788 0l12.888 12.888z"/></symbol><symbol id="touch" viewBox="0 0 48 48" fill="none" xmlns="http://www.w3.org/2000/svg"><circle cx="24" cy="24" r="24" fill="#fff"/><path d="M23.5 9.333c2.023 0 3.75.706 5.184 2.117 1.433 1.411 2.15 3.128 2.15 5.15 0 1.155-.25 2.244-.75 3.267a7.368 7.368 0 0 1-2.117 2.6h-1.133V20.8a5.149 5.149 0 0 0 1.483-1.867 5.42 5.42 0 0 0 .517-2.333c0-1.467-.523-2.711-1.567-3.733-1.044-1.023-2.3-1.534-3.767-1.534-1.466 0-2.722.511-3.766 1.534-1.045 1.022-1.567 2.266-1.567 3.733 0 .822.172 1.6.517 2.333a5.149 5.149 0 0 0 1.483 1.867v2.4a7.25 7.25 0 0 1-2.933-2.733 7.342 7.342 0 0 1-1.067-3.867c0-2.022.717-3.739 2.15-5.15 1.433-1.411 3.161-2.117 5.183-2.117Zm-1.266 28c-.378 0-.734-.072-1.067-.216a2.766 2.766 0 0 1-.867-.584l-6.866-6.866 1.866-1.934c.311-.31.661-.55 1.05-.716a1.827 1.827 0 0 1 1.217-.084l2.6.6V16.667c0-.934.322-1.723.967-2.367.644-.645 1.433-.967 2.366-.967.934 0 1.723.322 2.367.967.644.644.967 1.433.967 2.367V22.4h.866c.111 0 .211.022.3.067.09.044.19.088.3.133l4.934 2.4c.533.244.927.639 1.183 1.183.255.545.328 1.106.217 1.684l-1.2 7.266a2.518 2.518 0 0 1-.934 1.584 2.692 2.692 0 0 1-1.733.616h-8.533Zm-.267-2h9.367l1.433-8.3-6.1-3.033h-1.833v-7.333c0-.4-.123-.723-.367-.967s-.567-.367-.967-.367-.722.123-.966.367c-.245.244-.367.567-.367.967v13.3l-5.133-1.1-.767.766 5.7 5.7Zm9.367 0h-9.367 9.367Z" fill="#7EB101"/></symbol><symbol id="rocket" viewBox="0 0 48 48" fill="none" xmlns="http://www.w3.org/2000/svg"><circle cx="24" cy="24" r="24" fill="#fff"/><path d="m14.233 21.633 3.534 1.5c.4-.8.827-1.588 1.283-2.366.456-.778.939-1.523 1.45-2.234L17.867 18l-3.634 3.633Zm5.134 2.7 4.433 4.434a26.195 26.195 0 0 0 3.567-1.967c1.11-.733 2.01-1.444 2.7-2.133 1.8-1.8 3.122-3.645 3.966-5.534.845-1.889 1.3-4.022 1.367-6.4-2.378.067-4.511.523-6.4 1.367-1.889.845-3.733 2.167-5.533 3.967-.69.689-1.4 1.589-2.134 2.7a26.195 26.195 0 0 0-1.966 3.566Zm7.633-3.2c-.444-.444-.667-.994-.667-1.65 0-.655.223-1.205.667-1.65.444-.444.994-.666 1.65-.666.656 0 1.206.222 1.65.666.444.445.667.995.667 1.65 0 .656-.223 1.206-.667 1.65-.444.445-.994.667-1.65.667-.656 0-1.206-.222-1.65-.667ZM26.5 33.9l3.633-3.633-.533-2.634c-.711.512-1.456.995-2.233 1.45-.778.456-1.567.884-2.367 1.284l1.5 3.533Zm10.867-23.133c.2 3.022-.178 5.777-1.134 8.266-.955 2.49-2.533 4.834-4.733 7.034l-.067.066-.066.067.733 3.667c.067.333.05.655-.05.966-.1.312-.272.59-.517.834l-5.7 5.733L23 30.8l-5.667-5.667-6.6-2.833 5.734-5.7c.244-.244.522-.417.833-.517.311-.1.633-.116.967-.05l3.666.734a.263.263 0 0 1 .067-.05.263.263 0 0 0 .067-.05c2.2-2.2 4.544-3.784 7.033-4.75 2.489-.967 5.244-1.35 8.267-1.15Zm-24.4 18.4c.777-.778 1.727-1.173 2.85-1.184 1.122-.01 2.072.373 2.85 1.15.777.778 1.16 1.728 1.15 2.85-.011 1.123-.406 2.073-1.184 2.85-.577.578-1.472 1.056-2.683 1.434-1.211.377-3.028.733-5.45 1.066.333-2.422.683-4.244 1.05-5.466.367-1.223.839-2.123 1.417-2.7Zm1.4 1.433c-.311.333-.59.856-.834 1.567-.244.71-.455 1.622-.633 2.733 1.111-.178 2.022-.389 2.733-.633.711-.245 1.234-.523 1.567-.834.422-.377.639-.85.65-1.416a2.026 2.026 0 0 0-.583-1.484 2.027 2.027 0 0 0-1.484-.583 1.875 1.875 0 0 0-1.416.65Z" fill="#7EB101"/></symbol><symbol id="icon-Stars-2" viewBox="0 0 202 32"><path fill="#ffe550" style="fill:var(--color1,#ffe550)" d="M15.421 1.037c.584-1.383 2.575-1.383 3.159 0l3.449 8.164a1.71 1.71 0 0 0 1.443 1.032l8.952.707c1.517.12 2.132 1.983.976 2.958l-6.821 5.752a1.67 1.67 0 0 0-.551 1.67l2.084 8.6c.353 1.457-1.257 2.609-2.556 1.828l-7.664-4.609a1.734 1.734 0 0 0-1.783 0l-7.664 4.609c-1.299.781-2.909-.371-2.556-1.828l2.084-8.6a1.67 1.67 0 0 0-.551-1.67L.601 13.898c-1.156-.975-.541-2.838.976-2.958l8.952-.707a1.71 1.71 0 0 0 1.443-1.032l3.449-8.164zM57.421 1.037c.584-1.383 2.575-1.383 3.159 0l3.449 8.164a1.71 1.71 0 0 0 1.443 1.032l8.952.707c1.517.12 2.132 1.983.976 2.958l-6.821 5.752a1.67 1.67 0 0 0-.551 1.67l2.084 8.6c.353 1.457-1.257 2.609-2.556 1.828l-7.664-4.609a1.734 1.734 0 0 0-1.783 0l-7.664 4.609c-1.299.781-2.909-.371-2.556-1.828l2.084-8.6a1.67 1.67 0 0 0-.551-1.67l-6.821-5.752c-1.156-.975-.541-2.838.976-2.958l8.952-.707a1.71 1.71 0 0 0 1.443-1.032l3.449-8.164zM99.421 1.037c.584-1.383 2.575-1.383 3.159 0l3.449 8.164a1.71 1.71 0 0 0 1.443 1.032l8.952.707c1.517.12 2.132 1.983.976 2.958l-6.821 5.752a1.67 1.67 0 0 0-.551 1.67l2.084 8.6c.353 1.457-1.257 2.609-2.556 1.828l-7.664-4.609a1.734 1.734 0 0 0-1.783 0l-7.664 4.609c-1.299.781-2.909-.371-2.556-1.828l2.084-8.6a1.67 1.67 0 0 0-.551-1.67l-6.821-5.752c-1.156-.975-.541-2.838.976-2.958l8.952-.707a1.71 1.71 0 0 0 1.443-1.032l3.449-8.164zM141.421 1.037c.584-1.383 2.575-1.383 3.159 0l3.449 8.164a1.71 1.71 0 0 0 1.443 1.032l8.952.707c1.517.12 2.132 1.983.976 2.958l-6.821 5.752a1.67 1.67 0 0 0-.551 1.67l2.084 8.6c.353 1.457-1.257 2.609-2.556 1.828l-7.664-4.609a1.734 1.734 0 0 0-1.783 0l-7.664 4.609c-1.299.781-2.909-.371-2.556-1.828l2.084-8.6a1.67 1.67 0 0 0-.551-1.67l-6.821-5.752c-1.156-.975-.541-2.838.976-2.958l8.952-.707a1.71 1.71 0 0 0 1.443-1.032l3.449-8.164zM183.421 1.037c.584-1.383 2.575-1.383 3.159 0l3.449 8.164a1.71 1.71 0 0 0 1.443 1.032l8.953.707c1.516.12 2.132 1.983.976 2.958l-6.821 5.752a1.67 1.67 0 0 0-.551 1.67l2.084 8.6c.353 1.457-1.257 2.609-2.556 1.828l-7.664-4.609a1.734 1.734 0 0 0-1.783 0l-7.664 4.609c-1.299.781-2.909-.371-2.556-1.828l2.084-8.6a1.67 1.67 0 0 0-.551-1.67l-6.821-5.752c-1.156-.975-.541-2.838.976-2.958l8.952-.707a1.71 1.71 0 0 0 1.443-1.032l3.449-8.164z"/></symbol></defs></svg>