<svg aria-hidden="true" style="position: absolute; width: 0; height: 0; overflow: hidden;" version="1.1" xmlns="http://www.w3.org/2000/svg" xmlns:xlink="http://www.w3.org/1999/xlink">
<defs>
<symbol id="icon-arrow-left-desk" viewBox="0 0 37 32">
<path d="M2.667 21.333v-16c0-2.946 2.388-5.333 5.333-5.333h21.333c2.946 0 5.333 2.388 5.333 5.333v16c0 2.946-2.388 5.333-5.333 5.333h-21.333c-2.946 0-5.333-2.388-5.333-5.333z"></path>
<path d="M11.634 13.937l9.288 8.85c0.155 0.148 0.361 0.23 0.575 0.23s0.42-0.082 0.575-0.23l0.010-0.010c0.075-0.072 0.135-0.158 0.176-0.253s0.062-0.198 0.062-0.302-0.021-0.207-0.062-0.302c-0.041-0.096-0.101-0.182-0.176-0.253l-8.747-8.333 8.747-8.33c0.075-0.072 0.135-0.158 0.176-0.253s0.062-0.198 0.062-0.302-0.021-0.207-0.062-0.302c-0.041-0.096-0.101-0.182-0.176-0.253l-0.010-0.010c-0.155-0.148-0.361-0.23-0.575-0.23s-0.42 0.082-0.575 0.23l-9.288 8.85c-0.082 0.078-0.147 0.171-0.191 0.275s-0.067 0.215-0.067 0.328c0 0.113 0.023 0.225 0.067 0.328s0.109 0.197 0.191 0.275z"></path>
</symbol>
<symbol id="icon-arrow-left-tablet" viewBox="0 0 37 32">
<path d="M3.556 21.333v-17.778c0-1.964 1.592-3.556 3.556-3.556h23.111c1.964 0 3.556 1.592 3.556 3.556v17.778c0 1.964-1.592 3.556-3.556 3.556h-23.111c-1.964 0-3.556-1.592-3.556-3.556z"></path>
<path d="M12.231 12.686v0c-0.033-0.031-0.059-0.069-0.076-0.11v0c-0.018-0.041-0.027-0.086-0.027-0.131s0.009-0.090 0.027-0.131v0c0.018-0.041 0.044-0.079 0.076-0.11v-0l8.669-8.26c0.062-0.059 0.144-0.092 0.23-0.092 0.084 0 0.165 0.032 0.227 0.089l0.005 0.005-0 0 0.008 0.008c0.027 0.025 0.048 0.056 0.062 0.090s0.022 0.070 0.022 0.107-0.007 0.073-0.022 0.107c-0.015 0.034-0.036 0.064-0.062 0.090l-0 0-8.501 8.096 8.502 8.1c0.027 0.025 0.048 0.056 0.062 0.090s0.022 0.070 0.022 0.107c0 0.037-0.007 0.073-0.022 0.107s-0.036 0.064-0.062 0.090l-0-0-0.008 0.008-0.005 0.005c-0.062 0.057-0.143 0.089-0.227 0.089-0.086 0-0.168-0.033-0.23-0.092l-0-0-8.669-8.26z"></path>
</symbol>
<symbol id="icon-arrow-right-desk" viewBox="0 0 37 32">
<path d="M34.667 5.333v16c0 2.946-2.388 5.333-5.333 5.333h-21.333c-2.946 0-5.333-2.388-5.333-5.333v-16c0-2.946 2.388-5.333 5.333-5.333h21.333c2.946 0 5.333 2.388 5.333 5.333z"></path>
<path d="M25.7 12.73l-9.288-8.85c-0.155-0.148-0.361-0.23-0.575-0.23s-0.42 0.082-0.575 0.23l-0.010 0.010c-0.075 0.072-0.135 0.158-0.176 0.253s-0.062 0.198-0.062 0.302 0.021 0.207 0.062 0.302c0.041 0.096 0.101 0.182 0.176 0.253l8.747 8.333-8.747 8.33c-0.075 0.072-0.135 0.158-0.176 0.253s-0.062 0.198-0.062 0.302 0.021 0.207 0.062 0.302c0.041 0.096 0.101 0.182 0.176 0.253l0.010 0.010c0.155 0.148 0.361 0.23 0.575 0.23s0.42-0.082 0.575-0.23l9.288-8.85c0.082-0.078 0.147-0.171 0.191-0.275s0.067-0.215 0.067-0.328c0-0.113-0.023-0.225-0.067-0.328s-0.109-0.197-0.191-0.275z"></path>
</symbol>
<symbol id="icon-arrow-right-tablet" viewBox="0 0 37 32">
<path d="M33.778 3.556v17.778c0 1.964-1.592 3.556-3.556 3.556h-23.111c-1.964 0-3.556-1.592-3.556-3.556v-17.778c0-1.964 1.592-3.556 3.556-3.556h23.111c1.964 0 3.556 1.592 3.556 3.556z"></path>
<path d="M25.102 12.203v0c0.033 0.031 0.059 0.069 0.076 0.11v0c0.018 0.041 0.027 0.086 0.027 0.131s-0.009 0.090-0.027 0.131v0c-0.018 0.041-0.044 0.079-0.076 0.11v0l-8.669 8.26c-0.062 0.059-0.144 0.092-0.23 0.092-0.084 0-0.165-0.032-0.227-0.089l-0.005-0.005 0-0-0.008-0.008c-0.027-0.025-0.048-0.056-0.062-0.090s-0.022-0.070-0.022-0.107 0.007-0.073 0.022-0.107c0.015-0.034 0.036-0.064 0.062-0.090l0-0 8.501-8.096-8.502-8.1c-0.027-0.025-0.048-0.056-0.062-0.090s-0.022-0.070-0.022-0.107 0.007-0.073 0.022-0.107c0.015-0.034 0.036-0.064 0.062-0.090l0 0 0.008-0.008 0.005-0.005c0.062-0.057 0.143-0.089 0.227-0.089 0.086 0 0.168 0.033 0.23 0.092l0 0 8.669 8.26z"></path>
</symbol>
<symbol id="icon-burger_menu" viewBox="0 0 32 32">
<path d="M2.666 8c0-0.354 0.14-0.693 0.391-0.943s0.589-0.391 0.943-0.391h24c0.354 0 0.693 0.14 0.943 0.391s0.39 0.589 0.39 0.943c0 0.354-0.14 0.693-0.39 0.943s-0.589 0.391-0.943 0.391h-24c-0.354 0-0.693-0.14-0.943-0.391s-0.391-0.589-0.391-0.943zM2.666 16.043c0-0.354 0.14-0.693 0.391-0.943s0.589-0.39 0.943-0.39h24c0.354 0 0.693 0.14 0.943 0.39s0.39 0.589 0.39 0.943c0 0.354-0.14 0.693-0.39 0.943s-0.589 0.39-0.943 0.39h-24c-0.354 0-0.693-0.14-0.943-0.39s-0.391-0.589-0.391-0.943zM4 22.752c-0.354 0-0.693 0.141-0.943 0.39s-0.391 0.589-0.391 0.943 0.14 0.693 0.391 0.943c0.25 0.25 0.589 0.39 0.943 0.39h24c0.354 0 0.693-0.14 0.943-0.39s0.39-0.589 0.39-0.943c0-0.354-0.14-0.693-0.39-0.943s-0.589-0.39-0.943-0.39h-24z"></path>
</symbol>
<symbol id="icon-close" viewBox="0 0 30 32">
<path d="M16.219 14.826l4.928-4.924c0.166-0.194 0.253-0.443 0.243-0.698s-0.116-0.497-0.296-0.677c-0.181-0.18-0.423-0.286-0.678-0.296s-0.505 0.077-0.699 0.243l-4.928 4.873-4.958-4.954c-0.194-0.166-0.443-0.253-0.699-0.243s-0.497 0.116-0.678 0.296c-0.181 0.18-0.286 0.422-0.296 0.677s0.077 0.504 0.243 0.698l4.948 5.005-4.846 4.782c-0.106 0.091-0.192 0.203-0.253 0.328s-0.095 0.263-0.1 0.402 0.018 0.279 0.069 0.409c0.051 0.13 0.128 0.248 0.227 0.347s0.217 0.176 0.347 0.227c0.13 0.051 0.269 0.074 0.409 0.069s0.277-0.040 0.402-0.1c0.126-0.061 0.238-0.147 0.329-0.253l4.836-4.833 4.806 4.802c0.194 0.166 0.443 0.253 0.699 0.243s0.497-0.116 0.678-0.296c0.181-0.18 0.286-0.422 0.296-0.677s-0.077-0.504-0.243-0.698l-4.786-4.751z"></path>
</symbol>
<symbol id="icon-logo" viewBox="0 0 44 32">
<path fill="#ffe550" style="fill: var(--color5, #ffe550)" d="M16.394 6.486c1.012-1.989 3.853-1.989 4.865 0l1.259 2.476c0.396 0.778 1.14 1.32 2.002 1.458l2.752 0.439c2.197 0.351 3.074 3.042 1.504 4.62l-1.981 1.991c-0.614 0.617-0.897 1.489-0.761 2.349l0.435 2.769c0.346 2.202-1.951 3.868-3.937 2.854l-2.465-1.259c-0.779-0.398-1.702-0.398-2.482 0l-2.465 1.259c-1.985 1.014-4.283-0.652-3.937-2.854l0.435-2.769c0.135-0.859-0.148-1.732-0.761-2.349l-1.981-1.991c-1.57-1.577-0.693-4.269 1.504-4.62l2.752-0.439c0.862-0.138 1.607-0.68 2.002-1.458l1.259-2.476z"></path>
<path fill="#2c2c2c" style="fill: var(--color2, #2c2c2c)" d="M3.427 20.356l-0.021 0.005c0.003 0.074-0.001 0.374-0.012 0.9-0.003 0.524-0.005 0.869-0.003 1.033-0 0.157-0.004 0.285-0.010 0.384 0 0.097 0.001 0.209 0.001 0.336-0.002 0.12-0.008 0.219-0.020 0.296-0.006 0.069-0.012 0.138-0.019 0.206-0.014 0.13-0.042 0.201-0.085 0.211-0.092 0.022-0.236-0.049-0.431-0.212-0.197-0.17-0.311-0.319-0.341-0.446s-0.037-1.061-0.021-2.8c0.023-1.741-0.022-2.885-0.137-3.434-0.025-0.106-0.020-0.197 0.014-0.273 0.036-0.166 0.22-0.321 0.551-0.467 0.339-0.148 0.845-0.301 1.517-0.461 0.68-0.161 1.219-0.252 1.618-0.272 0.406-0.022 0.624 0.031 0.654 0.159 0.020 0.085-0.026 0.159-0.138 0.223s-0.212 0.117-0.299 0.161c-0.089 0.036-0.205 0.082-0.349 0.139-0.145 0.049-0.28 0.096-0.404 0.141-0.126 0.037-0.289 0.091-0.489 0.161-0.193 0.068-0.372 0.133-0.537 0.195-0.167 0.055-0.391 0.134-0.673 0.238s-0.465 0.17-0.548 0.197c0.012 0.020 0.023 0.051 0.033 0.093 0.079 0.333 0.121 1.131 0.127 2.393 0.444-0.083 0.912-0.205 1.405-0.367 0.5-0.163 0.806-0.259 0.92-0.286 0.269-0.064 0.417-0.039 0.444 0.074 0.052 0.22-0.213 0.477-0.794 0.772-0.574 0.293-1.225 0.526-1.955 0.699zM10.36 18.397c-0.057-0.241-0.149-0.458-0.277-0.652-0.13-0.201-0.281-0.334-0.453-0.397-0.457 0.251-0.789 0.729-0.996 1.437-0.202 0.699-0.238 1.32-0.11 1.866s0.343 0.853 0.644 0.924c0.486-0.22 0.836-0.67 1.050-1.349 0.219-0.688 0.266-1.297 0.141-1.828zM7.589 19.155c0.118-0.611 0.333-1.141 0.646-1.589 0.318-0.457 0.686-0.735 1.104-0.834 0.425-0.101 0.821-0.004 1.19 0.29 0.367 0.287 0.611 0.689 0.733 1.206 0.12 0.51 0.12 1.063-0.001 1.661-0.123 0.59-0.362 1.114-0.717 1.573-0.35 0.45-0.769 0.732-1.258 0.848-0.361 0.086-0.701-0.009-1.021-0.285s-0.539-0.669-0.659-1.179c-0.122-0.517-0.128-1.080-0.017-1.69zM15.173 17.255c-0.057-0.241-0.149-0.458-0.277-0.652-0.13-0.201-0.28-0.334-0.453-0.397-0.457 0.251-0.789 0.729-0.996 1.437-0.202 0.699-0.238 1.32-0.11 1.866s0.343 0.853 0.644 0.924c0.486-0.22 0.836-0.67 1.050-1.349 0.219-0.688 0.266-1.297 0.141-1.828zM12.402 18.013c0.118-0.611 0.333-1.141 0.646-1.589 0.318-0.457 0.687-0.735 1.104-0.834 0.425-0.101 0.821-0.004 1.19 0.29 0.367 0.287 0.611 0.689 0.733 1.206 0.12 0.51 0.12 1.064-0.001 1.661-0.123 0.59-0.362 1.114-0.717 1.573-0.35 0.45-0.769 0.732-1.258 0.848-0.361 0.086-0.701-0.009-1.021-0.285s-0.539-0.669-0.659-1.179c-0.122-0.517-0.128-1.080-0.017-1.69zM20.196 11.014c0.113-0.027 0.276 0.047 0.489 0.22 0.218 0.165 0.349 0.34 0.393 0.524s0.079 0.729 0.105 1.635c0.025 0.899 0.029 1.837 0.013 2.813-0.022 2.189-0.115 3.303-0.277 3.342-0.099 0.023-0.223-0.011-0.372-0.102-0.143-0.101-0.226-0.197-0.248-0.289s-0.040-0.282-0.056-0.57c-0.527 0.873-1.049 1.371-1.566 1.493-0.311 0.074-0.628-0.001-0.95-0.223-0.315-0.225-0.508-0.489-0.58-0.794-0.104-0.439-0.109-0.987-0.018-1.645 0.097-0.666 0.31-1.3 0.639-1.902s0.745-0.962 1.248-1.081c0.503-0.119 0.924 0.099 1.264 0.654 0.007-1.587-0.074-2.821-0.244-3.7-0.050-0.213 0.003-0.337 0.159-0.374zM20.258 16.508c-0.090-0.382-0.233-0.689-0.43-0.919-0.189-0.232-0.376-0.326-0.56-0.282-0.305 0.072-0.572 0.334-0.802 0.785s-0.383 0.944-0.459 1.478c-0.071 0.525-0.064 0.965 0.019 1.319 0.030 0.128 0.1 0.219 0.211 0.275s0.229 0.069 0.357 0.039c0.276-0.066 0.601-0.352 0.975-0.86 0.381-0.509 0.614-1.058 0.7-1.647l0.002-0.135-0.013-0.053zM27.037 15.864c0.137 0.581-0.010 1.132-0.44 1.653-0.432 0.514-0.988 0.852-1.668 1.013-0.673 0.16-1.269 0.118-1.79-0.125-0.523-0.25-0.82-0.531-0.894-0.842-0.050-0.212-0.011-0.334 0.116-0.364 0.113-0.027 0.376 0.090 0.789 0.351 0.156 0.090 0.352 0.163 0.59 0.219 0.245 0.054 0.487 0.053 0.728-0.004 0.496-0.118 0.905-0.349 1.227-0.695 0.329-0.347 0.459-0.67 0.389-0.967-0.045-0.191-0.23-0.405-0.555-0.642s-0.674-0.45-1.048-0.638c-0.368-0.197-0.715-0.417-1.042-0.661s-0.511-0.455-0.553-0.632c-0.042-0.177-0.051-0.373-0.027-0.588s0.068-0.379 0.131-0.491c0.204-0.37 0.567-0.752 1.087-1.144 0.528-0.394 0.99-0.639 1.386-0.733 0.205-0.049 0.395-0.023 0.568 0.078s0.278 0.226 0.313 0.375c0.017 0.071-0.044 0.145-0.183 0.223s-0.352 0.188-0.64 0.331c-0.282 0.134-0.529 0.275-0.741 0.423-0.741 0.505-1.077 0.902-1.008 1.193 0.037 0.156 0.554 0.493 1.551 1.012 0.384 0.201 0.747 0.455 1.088 0.763 0.347 0.299 0.556 0.597 0.626 0.895zM29.475 16.396c0.032 0.135 0.125 0.183 0.281 0.146 0.269-0.064 0.577-0.215 0.924-0.455 0.353-0.248 0.55-0.377 0.593-0.387 0.127-0.030 0.207 0.022 0.239 0.156 0.048 0.205-0.108 0.493-0.469 0.863-0.354 0.368-0.705 0.594-1.052 0.676-0.34 0.081-0.645 0.056-0.915-0.075-0.272-0.137-0.431-0.305-0.478-0.504s-0.064-0.46-0.050-0.785c0.011-0.332 0.036-0.768 0.073-1.308 0.043-0.549 0.071-1 0.084-1.355-0.314 0.157-0.528 0.249-0.642 0.276s-0.24-0.003-0.38-0.089c-0.135-0.095-0.214-0.196-0.239-0.302-0.040-0.17 0.382-0.442 1.265-0.816-0.011-0.618-0.070-1.154-0.177-1.607-0.050-0.213-0.004-0.335 0.137-0.369 0.12-0.029 0.287 0.014 0.501 0.128 0.212 0.107 0.341 0.256 0.386 0.447s0.064 0.542 0.057 1.052c0.395-0.131 0.713-0.225 0.954-0.282 0.425-0.101 0.659-0.059 0.702 0.125 0.025 0.106-0.071 0.223-0.288 0.349-0.21 0.125-0.665 0.349-1.367 0.672-0.017 0.595-0.053 1.28-0.109 2.057-0.058 0.769-0.069 1.232-0.032 1.387zM34.226 10.826c0.319-0.076 0.651 0.018 0.997 0.28 0.344 0.255 0.547 0.513 0.609 0.775 0.060 0.255 0.033 0.538-0.080 0.849 0.11 0.086 0.174 0.168 0.193 0.246 0.047 0.198 0.081 0.549 0.102 1.053 0.029 0.502 0.050 0.83 0.064 0.983 0.021 0.152 0.035 0.276 0.043 0.371 0.006 0.088 0.008 0.178 0.007 0.268 0.013 0.184-0.029 0.287-0.129 0.311-0.127 0.030-0.26-0.054-0.396-0.254-0.131-0.208-0.246-0.488-0.343-0.838-0.441 0.95-0.931 1.489-1.469 1.616-0.326 0.077-0.68 0.016-1.064-0.185-0.378-0.209-0.603-0.463-0.673-0.76-0.1-0.425-0.068-0.986 0.097-1.683 0.163-0.704 0.435-1.36 0.815-1.966s0.79-0.962 1.229-1.066zM35.156 12.58c-0.155-0.659-0.364-0.957-0.626-0.895-0.276 0.066-0.551 0.34-0.826 0.824-0.276 0.477-0.483 0.994-0.621 1.55s-0.173 0.98-0.104 1.27c0.028 0.12 0.101 0.208 0.219 0.262 0.116 0.047 0.241 0.055 0.376 0.023 0.333-0.079 0.655-0.391 0.968-0.937 0.311-0.552 0.472-1.17 0.483-1.853-0.004-0.111 0.041-0.189 0.135-0.234l-0.002-0.011z"></path>
<path fill="#bbf330" style="fill: var(--color6, #bbf330)" d="M32.978 19.975c-0.304 0.075-0.543 0.306-0.642 0.603-1.901 5.652-7.227 9.717-13.492 9.717-3.8 0-7.254-1.495-9.808-3.933-0.227-0.216-0.546-0.309-0.85-0.234-0.639 0.159-0.881 0.932-0.408 1.39 2.867 2.776 6.768 4.483 11.067 4.483 7.060 0 13.048-4.605 15.144-10.986 0.206-0.626-0.371-1.198-1.010-1.040zM4.171 14.148c0.346-0.086 0.602-0.374 0.666-0.725 1.209-6.669 7.024-11.718 14.007-11.718 4.541 0 8.588 2.135 11.196 5.463 0.22 0.281 0.582 0.416 0.928 0.33 0.584-0.145 0.848-0.823 0.48-1.298-2.916-3.772-7.477-6.2-12.603-6.2-7.861 0-14.394 5.71-15.703 13.224-0.103 0.593 0.447 1.070 1.031 0.925z"></path>
<path fill="#bbf330" style="fill: var(--color6, #bbf330); stroke: var(--color6, #bbf330)" stroke="#bbf330" stroke-linejoin="round" stroke-linecap="butt" stroke-miterlimit="4" stroke-width="0.6275" d="M42.816 5.331c-3.768 7.241-5.422 2.465-10.725 5.271 0.53-8.406 6.148-3.291 10.725-5.271z"></path>
</symbol>
<symbol id="icon-read-more-arrow" viewBox="0 0 19 32">
<path d="M17.903 15.592c0.494 0.494 0.494 1.294 0 1.788l-12.888 12.888c-0.494 0.494-1.294 0.494-1.788 0l-0.596-0.596c-0.494-0.494-0.494-1.294 0-1.788l11.399-11.398-11.399-11.399c-0.494-0.494-0.494-1.294 0-1.788l0.596-0.596c0.494-0.494 1.294-0.494 1.788 0l12.888 12.888z"></path>
</symbol>

<symbol id="touch" width="48" height="48" viewBox="0 0 48 48" fill="none" xmlns="http://www.w3.org/2000/svg">
<circle cx="24" cy="24" r="24" fill="white"/>
<path d="M23.5003 9.33331C25.5225 9.33331 27.2503 10.0389 28.6836 11.45C30.1169 12.8611 30.8336 14.5778 30.8336 16.6C30.8336 17.7555 30.5836 18.8444 30.0836 19.8666C29.5836 20.8889 28.878 21.7555 27.9669 22.4666H26.8336V20.8C27.478 20.2889 27.9725 19.6666 28.3169 18.9333C28.6614 18.2 28.8336 17.4222 28.8336 16.6C28.8336 15.1333 28.3114 13.8889 27.2669 12.8666C26.2225 11.8444 24.9669 11.3333 23.5003 11.3333C22.0336 11.3333 20.778 11.8444 19.7336 12.8666C18.6891 13.8889 18.1669 15.1333 18.1669 16.6C18.1669 17.4222 18.3391 18.2 18.6836 18.9333C19.028 19.6666 19.5225 20.2889 20.1669 20.8V23.2C18.9225 22.5555 17.9447 21.6444 17.2336 20.4666C16.5225 19.2889 16.1669 18 16.1669 16.6C16.1669 14.5778 16.8836 12.8611 18.3169 11.45C19.7503 10.0389 21.478 9.33331 23.5003 9.33331ZM22.2336 37.3333C21.8558 37.3333 21.5003 37.2611 21.1669 37.1166C20.8336 36.9722 20.5447 36.7778 20.3003 36.5333L13.4336 29.6666L15.3003 27.7333C15.6114 27.4222 15.9614 27.1833 16.3503 27.0166C16.7391 26.85 17.1447 26.8222 17.5669 26.9333L20.1669 27.5333V16.6666C20.1669 15.7333 20.4891 14.9444 21.1336 14.3C21.778 13.6555 22.5669 13.3333 23.5003 13.3333C24.4336 13.3333 25.2225 13.6555 25.8669 14.3C26.5114 14.9444 26.8336 15.7333 26.8336 16.6666V22.4H27.7003C27.8114 22.4 27.9114 22.4222 28.0003 22.4666C28.0891 22.5111 28.1891 22.5555 28.3003 22.6L33.2336 25C33.7669 25.2444 34.1614 25.6389 34.4169 26.1833C34.6725 26.7278 34.7447 27.2889 34.6336 27.8666L33.4336 35.1333C33.3225 35.7778 33.0114 36.3055 32.5003 36.7166C31.9891 37.1278 31.4114 37.3333 30.7669 37.3333H22.2336ZM21.9669 35.3333H31.3336L32.7669 27.0333L26.6669 24H24.8336V16.6666C24.8336 16.2666 24.7114 15.9444 24.4669 15.7C24.2225 15.4555 23.9003 15.3333 23.5003 15.3333C23.1003 15.3333 22.778 15.4555 22.5336 15.7C22.2891 15.9444 22.1669 16.2666 22.1669 16.6666V29.9666L17.0336 28.8666L16.2669 29.6333L21.9669 35.3333ZM31.3336 35.3333H21.9669H31.3336Z" fill="#7EB101"/>
</symbol>

<symbol id="rocket" width="48" height="48" viewBox="0 0 48 48" fill="none" xmlns="http://www.w3.org/2000/svg">
<circle cx="24" cy="24" r="24" fill="white"/>
<path d="M14.2333 21.6334L17.7667 23.1334C18.1667 22.3334 18.5944 21.5445 19.05 20.7667C19.5056 19.9889 19.9889 19.2445 20.5 18.5334L17.8667 18L14.2333 21.6334ZM19.3667 24.3334L23.8 28.7667C25.0667 28.1889 26.2556 27.5334 27.3667 26.8C28.4778 26.0667 29.3778 25.3556 30.0667 24.6667C31.8667 22.8667 33.1889 21.0223 34.0333 19.1334C34.8778 17.2445 35.3333 15.1111 35.4 12.7334C33.0222 12.8 30.8889 13.2556 29 14.1C27.1111 14.9445 25.2667 16.2667 23.4667 18.0667C22.7778 18.7556 22.0667 19.6556 21.3333 20.7667C20.6 21.8778 19.9444 23.0667 19.3667 24.3334ZM27 21.1334C26.5556 20.6889 26.3333 20.1389 26.3333 19.4834C26.3333 18.8278 26.5556 18.2778 27 17.8334C27.4444 17.3889 27.9944 17.1667 28.65 17.1667C29.3056 17.1667 29.8556 17.3889 30.3 17.8334C30.7444 18.2778 30.9667 18.8278 30.9667 19.4834C30.9667 20.1389 30.7444 20.6889 30.3 21.1334C29.8556 21.5778 29.3056 21.8 28.65 21.8C27.9944 21.8 27.4444 21.5778 27 21.1334ZM26.5 33.9L30.1333 30.2667L29.6 27.6334C28.8889 28.1445 28.1444 28.6278 27.3667 29.0834C26.5889 29.5389 25.8 29.9667 25 30.3667L26.5 33.9ZM37.3667 10.7667C37.5667 13.7889 37.1889 16.5445 36.2333 19.0334C35.2778 21.5223 33.7 23.8667 31.5 26.0667L31.4333 26.1334L31.3667 26.2L32.1 29.8667C32.1667 30.2 32.15 30.5223 32.05 30.8334C31.95 31.1445 31.7778 31.4223 31.5333 31.6667L25.8333 37.4L23 30.8L17.3333 25.1334L10.7333 22.3L16.4667 16.6C16.7111 16.3556 16.9889 16.1834 17.3 16.0834C17.6111 15.9834 17.9333 15.9667 18.2667 16.0334L21.9333 16.7667C21.9556 16.7445 21.9778 16.7278 22 16.7167C22.0222 16.7056 22.0444 16.6889 22.0667 16.6667C24.2667 14.4667 26.6111 12.8834 29.1 11.9167C31.5889 10.95 34.3444 10.5667 37.3667 10.7667ZM12.9667 29.1667C13.7444 28.3889 14.6944 27.9945 15.8167 27.9834C16.9389 27.9723 17.8889 28.3556 18.6667 29.1334C19.4444 29.9111 19.8278 30.8611 19.8167 31.9834C19.8056 33.1056 19.4111 34.0556 18.6333 34.8334C18.0556 35.4111 17.1611 35.8889 15.95 36.2667C14.7389 36.6445 12.9222 37 10.5 37.3334C10.8333 34.9111 11.1833 33.0889 11.55 31.8667C11.9167 30.6445 12.3889 29.7445 12.9667 29.1667ZM14.3667 30.6C14.0556 30.9334 13.7778 31.4556 13.5333 32.1667C13.2889 32.8778 13.0778 33.7889 12.9 34.9C14.0111 34.7223 14.9222 34.5111 15.6333 34.2667C16.3444 34.0223 16.8667 33.7445 17.2 33.4334C17.6222 33.0556 17.8389 32.5834 17.85 32.0167C17.8611 31.45 17.6667 30.9556 17.2667 30.5334C16.8444 30.1334 16.35 29.9389 15.7833 29.95C15.2167 29.9611 14.7444 30.1778 14.3667 30.6Z" fill="#7EB101"/>
</symbol>

<symbol id="stars" width="101" height="16" viewBox="0 0 101 16" fill="none" xmlns="http://www.w3.org/2000/svg">
<g clip-path="url(#clip0_3777_2)">
<path d="M7.71026 0.51869C8.00245 -0.172898 8.99759 -0.172897 9.28978 0.518692L11.0142 4.60057C11.1375 4.89213 11.416 5.09134 11.7357 5.11657L16.2118 5.46986C16.9702 5.52972 17.2777 6.46147 16.6999 6.94875L13.2896 9.82474C13.046 10.0302 12.9396 10.3526 13.014 10.6597L14.0559 14.9599C14.2324 15.6885 13.4274 16.2644 12.7781 15.874L8.94588 13.5695C8.67215 13.4049 8.3279 13.4049 8.05418 13.5695L4.22195 15.874C3.57265 16.2644 2.76757 15.6885 2.9441 14.9599L3.98602 10.6597C4.06044 10.3526 3.95406 10.0302 3.71048 9.82474L0.300104 6.94875C-0.277711 6.46147 0.0298078 5.52972 0.788199 5.46986L5.26436 5.11657C5.58409 5.09134 5.8626 4.89213 5.98577 4.60057L7.71026 0.51869Z" fill="#FFE550"/>
<path d="M28.7103 0.51869C29.0024 -0.172898 29.9976 -0.172897 30.2898 0.518692L32.0142 4.60057C32.1375 4.89213 32.416 5.09134 32.7357 5.11657L37.2118 5.46986C37.9702 5.52972 38.2777 6.46147 37.6999 6.94875L34.2896 9.82474C34.046 10.0302 33.9396 10.3526 34.014 10.6597L35.0559 14.9599C35.2324 15.6885 34.4274 16.2644 33.7781 15.874L29.9459 13.5695C29.6721 13.4049 29.3279 13.4049 29.0542 13.5695L25.222 15.874C24.5727 16.2644 23.7676 15.6885 23.9441 14.9599L24.986 10.6597C25.0604 10.3526 24.9541 10.0302 24.7105 9.82474L21.3001 6.94875C20.7223 6.46147 21.0298 5.52972 21.7882 5.46986L26.2644 5.11657C26.5841 5.09134 26.8626 4.89213 26.9858 4.60057L28.7103 0.51869Z" fill="#FFE550"/>
<path d="M49.7103 0.51869C50.0024 -0.172898 50.9976 -0.172897 51.2898 0.518692L53.0142 4.60057C53.1375 4.89213 53.416 5.09134 53.7357 5.11657L58.2118 5.46986C58.9702 5.52972 59.2777 6.46147 58.6999 6.94875L55.2896 9.82474C55.046 10.0302 54.9396 10.3526 55.014 10.6597L56.0559 14.9599C56.2324 15.6885 55.4274 16.2644 54.7781 15.874L50.9459 13.5695C50.6721 13.4049 50.3279 13.4049 50.0542 13.5695L46.222 15.874C45.5727 16.2644 44.7676 15.6885 44.9441 14.9599L45.986 10.6597C46.0604 10.3526 45.9541 10.0302 45.7105 9.82474L42.3001 6.94875C41.7223 6.46147 42.0298 5.52972 42.7882 5.46986L47.2644 5.11657C47.5841 5.09134 47.8626 4.89213 47.9858 4.60057L49.7103 0.51869Z" fill="#FFE550"/>
<path d="M70.7103 0.51869C71.0024 -0.172898 71.9976 -0.172897 72.2898 0.518692L74.0142 4.60057C74.1375 4.89213 74.416 5.09134 74.7357 5.11657L79.2118 5.46986C79.9702 5.52972 80.2777 6.46147 79.6999 6.94875L76.2896 9.82474C76.046 10.0302 75.9396 10.3526 76.014 10.6597L77.0559 14.9599C77.2324 15.6885 76.4274 16.2644 75.7781 15.874L71.9459 13.5695C71.6721 13.4049 71.3279 13.4049 71.0542 13.5695L67.222 15.874C66.5727 16.2644 65.7676 15.6885 65.9441 14.9599L66.986 10.6597C67.0604 10.3526 66.9541 10.0302 66.7105 9.82474L63.3001 6.94875C62.7223 6.46147 63.0298 5.52972 63.7882 5.46986L68.2644 5.11657C68.5841 5.09134 68.8626 4.89213 68.9858 4.60057L70.7103 0.51869Z" fill="#FFE550"/>
<path d="M91.7103 0.51869C92.0024 -0.172898 92.9976 -0.172897 93.2898 0.518692L95.0142 4.60057C95.1375 4.89213 95.416 5.09134 95.7357 5.11657L100.212 5.46986C100.97 5.52972 101.278 6.46147 100.7 6.94876L97.2896 9.82474C97.046 10.0302 96.9396 10.3526 97.014 10.6597L98.0559 14.9599C98.2324 15.6885 97.4274 16.2644 96.7781 15.874L92.9459 13.5695C92.6721 13.4049 92.3279 13.4049 92.0542 13.5695L88.222 15.874C87.5727 16.2644 86.7676 15.6885 86.9441 14.9599L87.986 10.6597C88.0604 10.3526 87.9541 10.0302 87.7105 9.82474L84.3001 6.94876C83.7223 6.46147 84.0298 5.52972 84.7882 5.46986L89.2644 5.11657C89.5841 5.09134 89.8626 4.89213 89.9858 4.60057L91.7103 0.51869Z" fill="#FFE550"/>
</g>
<clipPath id="clip0_3777_2">
<rect width="101" height="16" fill="white"/>
</clipPath>

</defs>
</svg>




